# xmcd CD database file
#
# Track frame offsets:
#	150
#	16241
#	29859
#	51655
#	70073
#	86651
#	104125
#	119668
#	134140
#	152394
#	165397
#
# Disc length: 2382 seconds
#
# Revision: 1
# Processed by: cddbd v1.5.2PL0 Copyright (c) Steve Scherf et al.
# Submitted via: CDex 1.79
#
DISCID=a0094c0b
DTITLE=Stan Martin - Love Ain't That Tough
DYEAR=2009
DGENRE=Country
TTITLE0=Blue, Blue Tears
TTITLE1=Love Ain't That Tough
TTITLE2=Whiskey Morning Sunrise
TTITLE3=Missing You Blues
TTITLE4=A Working Man Ain't Working Out For Me
TTITLE5=Last Night I Cried Over You
TTITLE6=Hard Life
TTITLE7=Are You Still Mine
TTITLE8=Set Me Free
TTITLE9=No Money
TTITLE10=How To Let Go
EXTD=YEAR: 2009
EXTT0=
EXTT1=
EXTT2=
EXTT3=
EXTT4=
EXTT5=
EXTT6=
EXTT7=
EXTT8=
EXTT9=
EXTT10=
PLAYORDER=
